{
  "accessors": [
    {
      "bufferView": 1,
      "componentType": 5126,
      "count": 30874,
      "max": [
        11.618300437927246,
        11.618300437927246,
        8.520660400390625
      ],
      "min": [
        -11.618300437927246,
        -11.618300437927246,
        -0.021479999646544456
      ],
      "type": "VEC3"
    },
    {
      "bufferView": 1,
      "byteOffset": 370488,
      "componentType": 5126,
      "count": 30874,
      "max": [
        0.9994045495986938,
        0.9999146461486816,
        1.0
      ],
      "min": [
        -0.9986452460289001,
        -0.9998283386230469,
        -0.9998524785041809
      ],
      "type": "VEC3"
    },
    {
      "bufferView": 0,
      "componentType": 5125,
      "count": 48750,
      "type": "SCALAR"
    }
  ],
  "asset": {
    "extras": {
      "author": "illusion (https://sketchfab.com/blenderillusion)",
      "license": "CC-BY-4.0 (http://creativecommons.org/licenses/by/4.0/)",
      "source": "https://sketchfab.com/3d-models/stickman-blender-rig-3e71ebb2b9fe42d699adec8a3e64828e",
      "title": "Stickman Blender Rig"
    },
    "generator": "Sketchfab-12.66.0",
    "version": "2.0"
  },
  "bufferViews": [
    {
      "buffer": 0,
      "byteLength": 195000,
      "name": "floatBufferViews",
      "target": 34963
    },
    {
      "buffer": 0,
      "byteLength": 740976,
      "byteOffset": 195000,
      "byteStride": 12,
      "name": "floatBufferViews",
      "target": 34962
    }
  ],
  "buffers": [
    {
      "byteLength": 935976,
      "uri": "scene.bin"
    }
  ],
  "materials": [
    {
      "doubleSided": true,
      "name": "Material",
      "pbrMetallicRoughness": {
        "metallicFactor": 0.0,
        "roughnessFactor": 0.6
      }
    }
  ],
  "meshes": [
    {
      "name": "Sketchfab_Mesh_0",
      "primitives": [
        {
          "attributes": {
            "NORMAL": 1,
            "POSITION": 0
          },
          "indices": 2,
          "material": 0,
          "mode": 4
        }
      ]
    }
  ],
  "nodes": [
    {
      "children": [
        1
      ],
      "matrix": [
        1.0,
        0.0,
        0.0,
        0.0,
        0.0,
        2.220446049250313e-16,
        -1.0,
        0.0,
        0.0,
        1.0,
        2.220446049250313e-16,
        0.0,
        0.0,
        0.0,
        0.0,
        1.0
      ],
      "name": "Sketchfab_model"
    },
    {
      "children": [
        2
      ],
      "name": "Root"
    },
    {
      "children": [
        3
      ],
      "name": "Sketchfab_Mesh"
    },
    {
      "mesh": 0,
      "name": "Sketchfab_Mesh_0"
    }
  ],
  "scene": 0,
  "scenes": [
    {
      "name": "Sketchfab_Scene",
      "nodes": [
        0
      ]
    }
  ]
}
